#!OML:ASF F:\VICON\USERDATA\INSTALL\rory3\rory3.ASF
:FULLY-SPECIFIED
:DEGREES
3036
root 0.105318 16.0219 0.511772 -1.85052 -0.576687 -1.41058
lowerback 7.75329 -0.207426 -1.19564
upperback -2.66499 -0.523925 -1.75234
thorax -7.16049 -0.246858 -1.09475
lowerneck -18.3408 -8.0391 -10.0033
upperneck 37.7119 -12.62 8.99594
head 18.7027 -5.36222 3.23246
rclavicle 1.32689e-014 -6.36111e-015
rhumerus 53.9073 19.2619 -15.0189
rradius 99.7568
rwrist -36.5716
rhand -6.31882 17.8081
rfingers 7.12502
rthumb 19.5259 -11.2314
lclavicle 1.32689e-014 -6.36111e-015
lhumerus 12.138 -45.2419 80.7517
lradius 97.7222
lwrist 2.18298
lhand -38.9379 1.84718
lfingers 7.12502
lthumb -11.9438 31.4864
rfemur 2.33066 10.7787 19.8147
rtibia 16.9029
rfoot -13.37 -10.9344
rtoes -7.41192
lfemur 3.64033 -10.8165 -16.3919
ltibia 13.7953
lfoot -11.6133 9.89903
ltoes -11.7325
3037
root 0.105213 16.0235 0.512863 -1.83437 -0.571852 -1.41105
lowerback 7.76524 -0.195439 -1.19069
upperback -2.65673 -0.508255 -1.76394
thorax -7.15858 -0.239694 -1.11185
lowerneck -18.3466 -8.04408 -9.95879
upperneck 37.7518 -12.6425 8.97874
head 18.7251 -5.36628 3.21269
rclavicle -1.86858e-014 -1.59028e-015
rhumerus 53.814 19.434 -15.3167
rradius 99.6495
rwrist -36.4726
rhand -6.00782 17.4275
rfingers 7.12502
rthumb 19.8248 -11.5814
lclavicle -1.86858e-014 -1.59028e-015
lhumerus 12.1188 -45.313 80.6835
lradius 97.7564
lwrist 2.24434
lhand -38.8584 2.19797
lfingers 7.12502
lthumb -11.8671 31.8417
rfemur 2.31548 10.7829 19.8154
rtibia 16.9128
rfoot -13.4337 -10.9148
rtoes -7.40292
lfemur 3.6321 -10.8281 -16.3888
ltibia 13.7729
lfoot -11.6174 9.90915
ltoes -11.3402
3038
root 0.10602 16.0229 0.513802 -1.80515 -0.555659 -1.33647
lowerback 7.74713 -0.190167 -1.23813
upperback -2.64261 -0.508253 -1.80502
thorax -7.13323 -0.238633 -1.12825
lowerneck -18.3367 -8.06371 -9.98465
upperneck 37.7753 -12.7126 9.07725
head 18.7631 -5.38507 3.24964
rclavicle 8.89561e-015 3.18055e-015
rhumerus 53.689 19.5253 -15.5494
rradius 99.7738
rwrist -36.6027
rhand -5.4423 16.5327
rfingers 7.12502
rthumb 20.3684 -12.4191
lclavicle 8.89561e-015 3.18055e-015
lhumerus 12.0799 -45.3338 80.6145
lradius 97.7754
lwrist 2.28492
lhand -38.5513 2.16424
lfingers 7.12502
lthumb -11.571 31.8248
rfemur 2.29428 10.7118 19.714
rtibia 16.8946
rfoot -13.3713 -10.8905
rtoes -7.61312
lfemur 3.6046 -10.8738 -16.4791
ltibia 13.7714
lfoot -11.6927 9.95925
ltoes -11.3892
3039
root 0.106623 16.0216 0.514525 -1.79622 -0.535086 -1.33779
lowerback 7.74259 -0.182195 -1.23467
upperback -2.62188 -0.496161 -1.79844
thorax -7.10833 -0.232734 -1.12482
lowerneck -18.2563 -8.09097 -10.0653
upperneck 37.7142 -12.7514 9.14235
head 18.7277 -5.40694 3.28574
rclavicle -8.94531e-016 3.18055e-015
rhumerus 53.5157 19.6634 -15.6738
rradius 99.6834
rwrist -36.4178
rhand -5.6954 16.9014
rfingers 7.12502
rthumb 20.1251 -12.0763
lclavicle -8.94531e-016 3.18055e-015
lhumerus 11.8549 -45.3582 80.7992
lradius 97.7588
lwrist 2.13752
lhand -38.4123 2.03353
lfingers 7.12502
lthumb -11.4369 31.7016
rfemur 2.28369 10.719 19.7123
rtibia 16.8939
rfoot -13.3228 -10.9089
rtoes -7.56158
lfemur 3.6011 -10.8735 -16.478
ltibia 13.7514
lfoot -11.6704 9.9622
ltoes -11.6874
3040
root 0.105278 16.0217 0.515413 -1.79688 -0.517887 -1.37874
lowerback 7.67556 -0.144708 -1.12474
upperback -2.54121 -0.434543 -1.85234
thorax -6.98437 -0.208867 -1.25113
lowerneck -18.1787 -8.13127 -10.0745
upperneck 37.5575 -12.8179 9.19815
head 18.6322 -5.43073 3.29427
rclavicle -5.46658e-016 0
rhumerus 53.1866 19.7286 -15.8406
rradius 99.5421
rwrist -36.2362
rhand -6.39911 17.7628
rfingers 7.12502
rthumb 19.4486 -11.2845
lclavicle -5.46658e-016 0
lhumerus 11.8242 -45.4709 80.8187
lradius 97.792
lwrist 2.39299
lhand -37.9768 1.84958
lfingers 7.12502
lthumb -11.0169 31.5405
rfemur 2.28566 10.813 19.7834
rtibia 16.9013
rfoot -13.3889 -10.9708
rtoes -7.32583
lfemur 3.61122 -10.8763 -16.4213
ltibia 13.7261
lfoot -11.6559 9.95887
ltoes -11.9467
3041
root 0.104262 16.022 0.516499 -1.80716 -0.53927 -1.41724
lowerback 7.54255 -0.106179 -1.00352
upperback -2.37985 -0.367157 -1.90615
thorax -6.73657 -0.182271 -1.38342
lowerneck -18.2857 -8.18076 -10.0632
upperneck 37.4428 -12.8975 9.25728
head 18.6121 -5.44866 3.29395
rclavicle 1.05853e-014 1.59028e-014
rhumerus 52.8896 19.6224 -16.0152
rradius 99.5991
rwrist -36.4044
rhand -6.50181 17.5991
rfingers 7.12502
rthumb 19.3499 -11.4582
lclavicle 1.05853e-014 1.59028e-014
lhumerus 12.1785 -45.4502 80.4953
lradius 97.9027
lwrist 3.06485
lhand -37.2534 1.64909
lfingers 7.12502
lthumb -10.3191 31.3759
rfemur 2.31655 10.8682 19.84
rtibia 16.8781
rfoot -13.4282 -10.9706
rtoes -7.06135
lfemur 3.62987 -10.8396 -16.3682
ltibia 13.7392
lfoot -11.6779 9.94565
ltoes -12.2132
3042
root 0.10466 16.0218 0.516957 -1.79311 -0.561193 -1.34414
lowerback 7.59763 -0.10809 -1.16561
upperback -2.37913 -0.384238 -1.85472
thorax -6.76632 -0.182607 -1.23611
lowerneck -18.3607 -8.17387 -10.101
upperneck 37.484 -12.844 9.19706
head 18.6441 -5.43736 3.28355
rclavicle 3.97569e-016 2.38542e-014
rhumerus 52.7602 19.7945 -16.1671
rradius 99.7467
rwrist -36.586
rhand -6.34948 17.1964
rfingers 7.12502
rthumb 19.4964 -11.8461
lclavicle 3.97569e-016 2.38542e-014
lhumerus 12.0508 -45.3264 80.569
lradius 97.9778
lwrist 3.31373
lhand -36.9 1.79006
lfingers 7.12502
lthumb -9.97818 31.5335
rfemur 2.3158 10.8753 19.7481
rtibia 16.8509
rfoot -13.4045 -10.9232
rtoes -7.24274
lfemur 3.61195 -10.839 -16.4543
ltibia 13.7649
lfoot -11.6898 9.95295
ltoes -12.2817
3043
root 0.104992 16.0222 0.517896 -1.78652 -0.564201 -1.38141
lowerback 7.82679 -0.088423 -1.21946
upperback -2.52689 -0.367092 -1.77049
thorax -7.05403 -0.169498 -1.12127
lowerneck -18.2083 -8.18036 -10.1724
upperneck 37.5614 -12.815 9.11184
head 18.6412 -5.45293 3.26936
rclavicle -4.96962e-016 1.59028e-015
rhumerus 52.4644 20.1997 -16.3808
rradius 99.8548
rwrist -36.6683
rhand -6.22591 17.0013
rfingers 7.12502
rthumb 19.6152 -12.0291
lclavicle -4.96962e-016 1.59028e-015
lhumerus 11.5039 -45.4417 80.9774
lradius 98.0091
lwrist 3.30739
lhand -36.8502 1.92679
lfingers 7.12502
lthumb -9.93012 31.6726
rfemur 2.31241 10.8705 19.7832
rtibia 16.8465
rfoot -13.4356 -10.8927
rtoes -7.12295
lfemur 3.59738 -10.8749 -16.4173
ltibia 13.7698
lfoot -11.6686 9.97324
ltoes -12.2414
3044
root 0.104835 16.0222 0.519071 -1.78197 -0.552551 -1.45596
lowerback 7.94579 -0.0684105 -1.15634
upperback -2.59829 -0.335974 -1.73941
thorax -7.19842 -0.156099 -1.12924
lowerneck -18.0717 -8.19882 -10.1947
upperneck 37.5781 -12.8221 9.04736
head 18.6099 -5.47255 3.24525
rclavicle -5.41688e-015 -1.03368e-014
rhumerus 52.1155 20.4521 -16.714
rradius 99.7905
rwrist -36.7829
rhand -5.97954 16.9978
rfingers 7.12502
rthumb 19.852 -12.0083
lclavicle -5.41688e-015 -1.03368e-014
lhumerus 11.246 -45.5638 81.1162
lradius 98.0045
lwrist 3.45866
lhand -36.7277 1.88284
lfingers 7.12502
lthumb -9.81192 31.6342
rfemur 2.3242 10.854 19.8717
rtibia 16.8292
rfoot -13.3889 -10.9465
rtoes -7.45885
lfemur 3.58231 -10.8966 -16.3319
ltibia 13.7861
lfoot -11.6386 9.99348
ltoes -12.3454
3045
root 0.104395 16.0218 0.520545 -1.78251 -0.554575 -1.45511
lowerback 7.96732 -0.0538537 -1.16278
upperback -2.58127 -0.316885 -1.733
thorax -7.19238 -0.146296 -1.1215
lowerneck -18.0208 -8.21286 -10.238
upperneck 37.5378 -12.8262 9.04891
head 18.5777 -5.48222 3.2524
rclavicle 9.0447e-015 8.74653e-015
rhumerus 51.83 20.6352 -17.0887
rradius 99.6943
rwrist -36.822
rhand -5.92619 17.1687
rfingers 7.12502
rthumb 19.9033 -11.8321
lclavicle 9.0447e-015 8.74653e-015
lhumerus 11.151 -45.6437 81.0914
lradius 97.9618
lwrist 3.49826
lhand -36.544 1.91988
lfingers 7.12502
lthumb -9.63474 31.6796
rfemur 2.35598 10.8103 19.8708
rtibia 16.7673
rfoot -13.2958 -10.9746
rtoes -7.87821
lfemur 3.56083 -10.914 -16.3374
ltibia 13.8479
lfoot -11.678 10.0357
ltoes -12.4689
3046
root 0.104275 16.0218 0.523142 -1.77949 -0.560879 -1.49
lowerback 8.00019 -0.0599677 -1.13931
upperback -2.57697 -0.322008 -1.71569
thorax -7.20677 -0.14941 -1.11583
lowerneck -17.9908 -8.21418 -10.2535
upperneck 37.5294 -12.8275 9.05686
head 18.5675 -5.48523 3.25915
rclavicle -9.14409e-015 7.95139e-015
rhumerus 51.5997 20.929 -17.3606
rradius 99.7354
rwrist -36.7749
rhand -6.36125 17.1307
rfingers 7.12502
rthumb 19.4851 -11.913
lclavicle -9.14409e-015 7.95139e-015
lhumerus 10.9029 -45.732 81.145
lradius 97.9754
lwrist 3.4501
lhand -36.5011 1.86741
lfingers 7.12502
lthumb -9.59332 31.629
rfemur 2.39788 10.8239 19.9143
rtibia 16.6919
rfoot -13.2397 -11.0373
rtoes -7.72981
lfemur 3.53882 -10.926 -16.3092
ltibia 13.9183
lfoot -11.7409 10.0453
ltoes -12.2873
